<?xml version="1.0" standalone="no"?>
<!DOCTYPE svg PUBLIC "-//W3C//DTD SVG 20010904//EN"
 "http://www.w3.org/TR/2001/REC-SVG-20010904/DTD/svg10.dtd">
<svg version="1.0" xmlns="http://www.w3.org/2000/svg"
 width="225.000000pt" height="107.000000pt" viewBox="0 0 225.000000 107.000000"
 preserveAspectRatio="xMidYMid meet">

<g transform="translate(0.000000,107.000000) scale(0.100000,-0.100000)"
fill="#000000" stroke="none">
<path d="M2162 950 c0 -19 2 -27 5 -17 2 9 2 25 0 35 -3 9 -5 1 -5 -18z"/>
<path d="M175 869 c-82 -55 -151 -102 -154 -105 -2 -2 497 -4 1109 -4 l1114 0
-70 50 c-39 27 -77 56 -84 65 -7 8 -18 15 -25 15 -8 0 -15 3 -17 8 -1 4 -25
22 -51 40 l-48 32 -812 0 -812 -1 -150 -100z"/>
<path d="M32 898 c-15 -15 -15 -41 0 -56 13 -13 54 -16 61 -4 3 4 -9 7 -26 7
-27 0 -32 4 -32 25 0 21 5 25 32 25 17 0 29 3 26 7 -7 12 -48 9 -61 -4z"/>
<path d="M50 872 c0 -10 7 -19 15 -19 8 0 15 9 15 19 0 10 -7 18 -15 18 -8 0
-15 -8 -15 -18z"/>
<path d="M214 709 c-23 -26 -32 -140 -14 -193 22 -69 80 -69 99 1 14 49 3 62
-17 21 -10 -18 -24 -33 -32 -33 -50 0 -53 176 -3 192 7 3 21 -10 32 -27 24
-40 36 -22 17 25 -18 41 -52 47 -82 14z"/>
<path d="M355 706 c-22 -33 -30 -121 -16 -172 22 -80 79 -95 107 -28 26 62 14
195 -19 216 -24 15 -57 8 -72 -16z m72 -37 c29 -56 7 -169 -32 -169 -30 0 -50
82 -35 144 13 60 44 71 67 25z"/>
<path d="M497 723 c-11 -11 -8 -251 3 -258 6 -4 10 28 11 87 0 103 12 96 23
-14 7 -66 21 -94 32 -65 3 8 11 50 18 93 l14 79 1 -92 c0 -55 5 -93 11 -93 6
0 10 52 10 135 0 126 -1 135 -19 135 -16 0 -20 -10 -26 -68 -12 -119 -22 -114
-41 21 -6 43 -20 58 -37 40z"/>
<path d="M660 594 c0 -87 4 -133 10 -129 6 3 10 28 10 54 0 46 2 49 30 55 36
7 54 44 46 94 -7 47 -23 62 -62 62 l-34 0 0 -136z m65 56 c0 -29 -4 -36 -22
-38 -21 -3 -23 1 -23 38 0 37 2 41 23 38 18 -2 22 -9 22 -38z"/>
<path d="M790 615 c0 -102 2 -117 20 -135 27 -27 44 -25 69 6 18 23 21 41 21
135 0 66 -4 109 -10 109 -6 0 -10 -36 -10 -89 0 -97 -11 -141 -34 -141 -26 0
-36 36 -36 134 0 57 -4 96 -10 96 -6 0 -10 -45 -10 -115z"/>
<path d="M925 720 c-9 -15 3 -30 26 -30 18 0 19 -8 19 -110 0 -67 4 -110 10
-110 6 0 10 43 10 109 0 106 1 110 23 113 12 2 22 10 22 18 0 18 -99 27 -110
10z"/>
<path d="M1060 600 l0 -130 51 0 c43 0 50 3 47 18 -2 12 -13 17 -38 17 -34 1
-35 2 -38 43 l-3 42 35 0 c25 0 36 4 36 15 0 10 -11 15 -35 15 -33 0 -35 2
-35 34 0 33 2 35 37 38 27 2 39 8 41 21 3 14 -4 17 -47 17 l-51 0 0 -130z"/>
<path d="M1190 600 c0 -80 4 -130 10 -130 6 0 10 25 10 56 0 47 3 55 18 52 10
-2 23 -22 33 -53 20 -58 46 -77 35 -25 -3 18 -12 45 -19 60 -12 24 -12 30 6
51 14 17 17 33 13 57 -7 48 -23 62 -67 62 l-39 0 0 -130z m68 91 c8 -5 12 -21
10 -37 -2 -23 -9 -30 -30 -32 -26 -3 -28 -1 -28 31 0 46 16 59 48 38z"/>
<path d="M1380 600 c0 -75 4 -130 10 -130 5 0 10 26 12 58 3 56 3 57 33 57 30
0 30 -1 33 -57 2 -32 7 -58 12 -58 6 0 10 55 10 130 0 80 -4 130 -10 130 -5 0
-10 -22 -10 -50 l0 -50 -35 0 -35 0 0 50 c0 28 -4 50 -10 50 -6 0 -10 -50 -10
-130z"/>
<path d="M1545 706 c-22 -33 -30 -121 -16 -172 22 -80 79 -95 107 -28 18 43
18 145 0 189 -13 29 -20 35 -45 35 -21 0 -35 -7 -46 -24z m72 -37 c16 -31 16
-107 0 -139 -7 -14 -21 -25 -32 -25 -43 0 -57 141 -18 180 19 20 35 15 50 -16z"/>
<path d="M1684 715 c-4 -9 -4 -61 -2 -116 4 -77 9 -104 23 -119 24 -27 51 -25
71 5 28 44 32 267 4 239 -5 -5 -11 -54 -12 -108 -3 -82 -6 -101 -21 -110 -28
-18 -37 9 -37 116 0 90 -12 131 -26 93z"/>
<path d="M1840 711 c-22 -42 -12 -81 31 -121 46 -42 52 -82 13 -88 -16 -2 -25
5 -35 30 l-13 33 -3 -28 c-5 -35 21 -77 47 -77 27 0 50 38 50 85 0 45 -10 62
-53 89 -20 12 -27 24 -25 39 5 32 34 33 51 1 19 -36 33 -13 17 27 -10 22 -19
29 -41 29 -18 0 -32 -7 -39 -19z"/>
<path d="M1964 717 c-2 -7 -3 -65 -2 -128 l3 -114 50 0 c38 0 50 4 50 15 0 10
-11 15 -35 16 -34 0 -35 2 -38 42 l-3 42 35 0 c25 0 36 4 36 15 0 10 -11 15
-35 15 -33 0 -35 2 -35 35 0 33 2 35 35 35 28 0 35 4 35 20 0 17 -7 20 -45 20
-28 0 -48 -5 -51 -13z"/>
<path d="M738 183 c15 -6 16 -65 0 -81 -9 -9 -8 -12 8 -12 17 0 19 6 16 50 -3
39 -8 50 -20 49 -11 0 -12 -2 -4 -6z"/>
<path d="M997 170 c-9 -11 -12 -20 -7 -20 15 0 12 -47 -2 -53 -7 -3 1 -5 17
-5 17 0 24 2 18 5 -7 2 -13 22 -13 43 0 21 6 41 13 43 6 3 7 6 2 6 -6 1 -18
-8 -28 -19z"/>
<path d="M1662 140 c0 -39 2 -47 7 -26 8 39 28 44 34 9 4 -22 5 -20 3 7 -1 27
-5 34 -18 32 -9 -1 -19 5 -21 15 -3 10 -5 -7 -5 -37z"/>
<path d="M2014 178 c-4 -6 0 -17 10 -23 15 -11 15 -13 -5 -18 -30 -8 -21 -42
11 -42 22 0 25 4 22 30 -2 16 -8 35 -13 41 -5 6 -6 14 -2 17 3 4 1 7 -5 7 -6
0 -14 -5 -18 -12z m26 -62 c0 -11 -19 -15 -25 -6 -3 5 1 10 9 10 9 0 16 -2 16
-4z"/>
<path d="M2190 160 c0 -39 6 -39 12 0 3 17 1 30 -4 30 -4 0 -8 -13 -8 -30z"/>
<path d="M308 174 c-3 -5 -3 -26 -1 -46 4 -29 10 -38 24 -38 10 0 19 4 19 10
0 5 -7 7 -15 4 -11 -5 -15 1 -15 20 0 18 6 26 18 27 13 0 14 2 2 6 -8 3 -18
10 -21 16 -4 5 -9 5 -11 1z"/>
<path d="M1586 154 c-28 -28 -12 -64 29 -64 18 0 17 2 -5 13 -31 16 -33 41 -2
45 12 2 22 8 22 13 0 14 -27 11 -44 -7z"/>
<path d="M1752 158 c-26 -26 0 -77 33 -64 20 7 20 62 -1 70 -20 8 -18 8 -32
-6z m38 -28 c0 -11 -7 -20 -15 -20 -8 0 -15 9 -15 20 0 11 7 20 15 20 8 0 15
-9 15 -20z"/>
<path d="M1923 163 c-8 -3 -12 -20 -12 -41 2 -31 3 -32 6 -9 2 15 8 27 13 27
4 0 6 -8 3 -19 -3 -10 0 -22 6 -25 7 -5 11 5 12 26 l2 33 7 -35 8 -35 -1 39
c-2 39 -14 49 -44 39z"/>
<path d="M2097 163 c-13 -13 -7 -32 13 -38 30 -10 25 -28 -6 -21 -17 5 -23 3
-19 -4 10 -15 45 -12 52 5 3 9 -2 22 -13 30 -18 14 -18 14 -1 15 10 0 15 5 12
10 -7 11 -28 13 -38 3z"/>
<path d="M384 146 c-12 -30 0 -51 31 -53 20 -1 23 0 8 4 -29 6 -30 23 -2 23
14 0 19 5 17 18 -4 22 -46 29 -54 8z m36 -6 c0 -5 -4 -10 -10 -10 -5 0 -10 5
-10 10 0 6 5 10 10 10 6 0 10 -4 10 -10z"/>
<path d="M474 146 c-11 -28 1 -51 26 -53 25 -3 25 -3 3 7 -13 5 -23 18 -23 29
0 12 8 21 23 24 l22 4 -23 2 c-12 0 -25 -5 -28 -13z"/>
<path d="M551 123 c1 -36 2 -37 8 -8 8 40 38 46 44 8 4 -28 4 -28 3 2 -1 25
-6 31 -28 33 -26 3 -28 1 -27 -35z"/>
<path d="M642 128 c2 -25 8 -33 23 -33 15 0 21 8 23 33 3 29 1 32 -23 32 -24
0 -26 -3 -23 -32z m36 0 c-2 -13 -7 -23 -13 -23 -5 0 -11 10 -13 23 -2 15 2
22 13 22 11 0 15 -7 13 -22z"/>
<path d="M812 128 c2 -25 8 -33 23 -33 15 0 21 8 23 33 3 29 1 32 -23 32 -24
0 -26 -3 -23 -32z m36 0 c-2 -13 -7 -23 -13 -23 -5 0 -11 10 -13 23 -2 15 2
22 13 22 11 0 15 -7 13 -22z"/>
<path d="M894 145 c-9 -23 3 -45 26 -45 27 0 26 -18 -2 -30 -23 -10 -23 -10 2
-7 22 2 25 7 28 50 3 45 2 47 -23 47 -14 0 -28 -7 -31 -15z m42 -6 c10 -17
-13 -36 -27 -22 -12 12 -4 33 11 33 5 0 12 -5 16 -11z"/>
<path d="M1088 152 c11 -7 9 -11 -8 -15 -32 -8 -22 -41 13 -45 27 -3 28 -1 25
30 -2 24 -8 34 -23 36 -15 2 -16 1 -7 -6z m12 -36 c0 -11 -19 -15 -25 -6 -3 5
1 10 9 10 9 0 16 -2 16 -4z"/>
<path d="M1231 157 c-1 -4 6 -22 15 -39 15 -30 15 -32 -2 -45 -15 -11 -15 -13
-2 -13 10 0 22 17 32 47 9 25 14 48 12 50 -2 3 -7 -5 -11 -16 -8 -27 -19 -27
-33 2 -6 12 -11 18 -11 14z"/>
<path d="M1401 123 c2 -31 3 -33 6 -10 2 15 8 27 13 27 4 0 6 -8 3 -19 -3 -10
0 -22 6 -25 7 -5 11 3 12 21 l1 28 8 -30 c8 -30 8 -30 9 8 1 35 -1 37 -29 37
-28 0 -30 -2 -29 -37z"/>
<path d="M1492 133 c-2 -35 8 -46 32 -37 10 4 16 17 15 38 l-1 31 -7 -29 c-9
-42 -29 -44 -34 -4 l-4 33 -1 -32z"/>
<path d="M60 120 c0 -5 5 -10 10 -10 6 0 10 5 10 10 0 6 -4 10 -10 10 -5 0
-10 -4 -10 -10z"/>
<path d="M140 120 c0 -5 5 -10 10 -10 6 0 10 5 10 10 0 6 -4 10 -10 10 -5 0
-10 -4 -10 -10z"/>
<path d="M230 120 c0 -5 5 -10 10 -10 6 0 10 5 10 10 0 6 -4 10 -10 10 -5 0
-10 -4 -10 -10z"/>
<path d="M2190 99 c0 -5 5 -7 10 -4 6 3 10 8 10 11 0 2 -4 4 -10 4 -5 0 -10
-5 -10 -11z"/>
</g>
</svg>
